<svg xmlns="http://www.w3.org/2000/svg" version="1.1" xmlns:xlink="http://www.w3.org/1999/xlink" xmlns:svgjs="http://svgjs.dev/svgjs" width="1000" height="1125" viewBox="0 0 1000 1125">
  <g transform="matrix(1,0,0,1,0,0)">
    <svg viewBox="0 0 320 360" data-background-color="#2a3132" preserveAspectRatio="xMidYMid meet" height="1125" width="1000" xmlns="http://www.w3.org/2000/svg" xmlns:xlink="http://www.w3.org/1999/xlink">
      <g id="tight-bounds" transform="matrix(1,0,0,1,0,0)">
        <svg viewBox="0 0 320 360" height="360" width="320">
          <g>
            <svg></svg>
          </g>
          <g>
            <svg viewBox="0 0 320 360" height="360" width="320">
              <g>
                <path xmlns="http://www.w3.org/2000/svg" d="M320 141.95l-19.957-19.957v-28.224l-53.812-53.812h-28.223l-19.958-19.957h-76.1l-19.957 19.957h-28.224l-53.812 53.812v28.224l-19.957 19.957v76.104l19.957 19.958v28.223l53.816 53.808h28.224l19.957 19.957h76.104l19.958-19.957h28.223l53.812-53.812v-28.224l19.949-19.957zM244.374 44.437l51.189 51.189v21.887l-73.076-73.076zM295.563 123.849v112.306l-79.408 79.408h-112.306l-79.412-79.412v-112.302l79.412-79.412h112.306zM123.807 24.48h72.39l15.478 15.477h-103.346zM24.437 95.626l51.189-51.189h21.887l-73.076 73.076zM4.484 216.197v-72.394l15.477-15.478v103.342zM75.626 315.563l-51.189-51.189v-21.887l73.076 73.076zM196.197 335.52h-72.39l-15.478-15.477h103.342zM295.563 264.374l-51.189 51.189h-21.887l73.076-73.076zM315.52 216.197l-15.477 15.478v-103.346l15.477 15.478z" fill="#336b87" fill-rule="nonzero" stroke="none" stroke-width="1" stroke-linecap="butt" stroke-linejoin="miter" stroke-miterlimit="10" stroke-dasharray="" stroke-dashoffset="0" font-family="none" font-weight="none" font-size="none" text-anchor="none" style="mix-blend-mode: normal" data-fill-palette-color="tertiary">
                </path>
              </g>
              <g transform="matrix(1,0,0,1,56,121.22929146512425)">
                <svg viewBox="0 0 208 117.5414170697515" height="117.5414170697515" width="208">
                  <g>
                    <svg viewBox="0 0 208 117.5414170697515" height="117.5414170697515" width="208">
                      <g>
                        <svg viewBox="0 0 208 117.5414170697515" height="117.5414170697515" width="208">
                          <g transform="matrix(1,0,0,1,0,56.576302125441)">
                            <svg viewBox="0 0 208 60.9651149443105" height="60.9651149443105" width="208">
                              <g id="textblocktransform">
                                <svg viewBox="0 0 208 60.9651149443105" height="60.9651149443105" width="208" id="textblock">
                                  <g>
                                    <svg viewBox="0 0 208 34.617909048288794" height="34.617909048288794" width="208">
                                      <g transform="matrix(1,0,0,1,0,0)">
                                        <svg width="208" viewBox="4.300000190734863 -34.900001525878906 213.2899932861328 35.5" height="34.617909048288794" data-palette-color="#90afc5">
                                          <path d="M4.3 0L4.3-34.9 19.75-34.9Q24.1-34.9 26.58-32.45 29.05-30 29.05-25.9L29.05-25.9Q29.05-23.95 28.5-22.58 27.95-21.2 27.1-20.33 26.25-19.45 25.15-19.03 24.05-18.6 23-18.5L23-18.5 23-18.2Q24.05-18.15 25.33-17.7 26.6-17.25 27.7-16.28 28.8-15.3 29.55-13.78 30.3-12.25 30.3-10.05L30.3-10.05Q30.3-7.95 29.63-6.1 28.95-4.25 27.75-2.9 26.55-1.55 24.9-0.78 23.25 0 21.3 0L21.3 0 4.3 0ZM9.95-15.45L9.95-4.85 19.65-4.85Q21.85-4.85 23.1-6 24.35-7.15 24.35-9.3L24.35-9.3 24.35-11Q24.35-13.15 23.1-14.3 21.85-15.45 19.65-15.45L19.65-15.45 9.95-15.45ZM9.95-30.05L9.95-20.15 18.7-20.15Q20.8-20.15 21.95-21.23 23.1-22.3 23.1-24.3L23.1-24.3 23.1-25.9Q23.1-27.9 21.95-28.98 20.8-30.05 18.7-30.05L18.7-30.05 9.95-30.05ZM37.05-34.9L42.6-34.9 42.6-13.4Q42.6-8.95 44.3-6.7 46-4.45 50.1-4.45L50.1-4.45Q54.2-4.45 55.9-6.7 57.6-8.95 57.6-13.4L57.6-13.4 57.6-34.9 63.15-34.9 63.15-14.3Q63.15-10.45 62.45-7.65 61.75-4.85 60.2-3.03 58.65-1.2 56.17-0.3 53.7 0.6 50.1 0.6L50.1 0.6Q46.5 0.6 44.02-0.3 41.55-1.2 40-3.03 38.45-4.85 37.75-7.65 37.05-10.45 37.05-14.3L37.05-14.3 37.05-34.9ZM93.9 0L71.55 0 71.55-34.9 93.9-34.9 93.9-29.9 77.2-29.9 77.2-20.2 92.34-20.2 92.34-15.2 77.2-15.2 77.2-5 93.9-5 93.9 0ZM106.84-14.1L106.84 0 101.19 0 101.19-34.9 116.24-34.9Q120.94-34.9 123.64-32.08 126.34-29.25 126.34-24.4L126.34-24.4Q126.34-20.65 124.62-18.18 122.89-15.7 119.54-14.7L119.54-14.7 127.09 0 120.79 0 113.79-14.1 106.84-14.1ZM106.84-18.85L115.84-18.85Q117.99-18.85 119.19-19.98 120.39-21.1 120.39-23.2L120.39-23.2 120.39-25.6Q120.39-27.7 119.19-28.83 117.99-29.95 115.84-29.95L115.84-29.95 106.84-29.95 106.84-18.85ZM133.94 0L133.94-34.9 146.29-34.9Q149.64-34.9 152.37-33.8 155.09-32.7 157.02-30.53 158.94-28.35 159.99-25.08 161.04-21.8 161.04-17.45L161.04-17.45Q161.04-13.1 159.99-9.83 158.94-6.55 157.02-4.38 155.09-2.2 152.37-1.1 149.64 0 146.29 0L146.29 0 133.94 0ZM139.59-5L146.29-5Q150.19-5 152.59-7.45 154.99-9.9 154.99-14.65L154.99-14.65 154.99-20.25Q154.99-25 152.59-27.45 150.19-29.9 146.29-29.9L146.29-29.9 139.59-29.9 139.59-5ZM190.44 0L168.09 0 168.09-34.9 190.44-34.9 190.44-29.9 173.74-29.9 173.74-20.2 188.89-20.2 188.89-15.2 173.74-15.2 173.74-5 190.44-5 190.44 0ZM217.59 0L197.74 0 197.74-34.9 203.39-34.9 203.39-5 217.59-5 217.59 0Z" opacity="1" transform="matrix(1,0,0,1,0,0)" fill="#90afc5" class="wordmark-text-0" data-fill-palette-color="primary" id="text-0"></path>
                                        </svg>
                                      </g>
                                    </svg>
                                  </g>
                                  <g transform="matrix(1,0,0,1,39.727999999999994,39.66949280825129)">
                                    <svg viewBox="0 0 128.544 21.295622136059215" height="21.295622136059215" width="128.544">
                                      <g transform="matrix(1,0,0,1,0,0)">
                                        <svg width="128.544" viewBox="2.549999952316284 -37 283.6800231933594 47" height="21.295622136059215" data-palette-color="#90afc5">
                                          <path d="M25.3 0L21.85 0Q20.15 0 19.33-0.85 18.5-1.7 18.5-3.1L18.5-3.1Q18.5-3.7 18.65-4.45L18.65-4.45 18.9-5.6 18.75-5.6Q17.15-2.35 15.2-0.88 13.25 0.6 10.4 0.6L10.4 0.6Q6.85 0.6 4.7-2.02 2.55-4.65 2.55-9.25L2.55-9.25Q2.55-12.1 3.33-15.13 4.1-18.15 5.65-20.68 7.2-23.2 9.58-24.8 11.95-26.4 15.15-26.4L15.15-26.4Q16.3-26.4 17.4-26.1 18.5-25.8 19.4-25.2 20.3-24.6 20.95-23.7 21.6-22.8 21.9-21.6L21.9-21.6 22.1-21.6 25.2-37 29.05-37 22.3-3.4 25.95-3.4 25.3 0ZM11.45-2.9L11.45-2.9Q13.15-2.9 14.43-3.6 15.7-4.3 16.85-5.45L16.85-5.45Q18.1-6.7 18.9-8.2 19.7-9.7 20.1-11.65L20.1-11.65 21.15-16.9Q21.4-18.1 21.2-19.18 21-20.25 20.3-21.08 19.6-21.9 18.4-22.4 17.2-22.9 15.5-22.9L15.5-22.9Q12.35-22.9 10.3-20.85 8.25-18.8 7.5-15.05L7.5-15.05 6.75-11.3Q6.5-9.9 6.5-8.75L6.5-8.75Q6.5-6.2 7.68-4.55 8.85-2.9 11.45-2.9ZM41.35 0.6L41.35 0.6Q36.7 0.6 34.15-2.15 31.6-4.9 31.6-10.2L31.6-10.2Q31.6-13.4 32.57-16.32 33.55-19.25 35.32-21.5 37.1-23.75 39.57-25.08 42.05-26.4 45.1-26.4L45.1-26.4Q46.75-26.4 48.25-25.98 49.75-25.55 50.9-24.7 52.05-23.85 52.72-22.55 53.4-21.25 53.4-19.5L53.4-19.5Q53.4-15.25 49.02-13.2 44.65-11.15 35.6-11.05L35.6-11.05Q35.5-10.5 35.47-9.93 35.45-9.35 35.45-8.95L35.45-8.95Q35.45-6.2 37.02-4.53 38.6-2.85 41.6-2.85L41.6-2.85Q44.05-2.85 46.02-3.98 48-5.1 49.5-6.95L49.5-6.95 52-4.7Q49.6-1.75 46.87-0.58 44.15 0.6 41.35 0.6ZM44.7-23.1L44.7-23.1Q43.2-23.1 41.82-22.55 40.45-22 39.37-21.03 38.3-20.05 37.52-18.63 36.75-17.2 36.4-15.5L36.4-15.5 36.1-14.05Q40.25-14.2 42.85-14.58 45.45-14.95 46.92-15.63 48.4-16.3 48.92-17.25 49.45-18.2 49.45-19.55L49.45-19.55Q49.45-20.6 49.05-21.28 48.65-21.95 48-22.35 47.35-22.75 46.47-22.93 45.6-23.1 44.7-23.1ZM66.15 0L61.6 0 57.65-25.8 61.4-25.8 63.3-13.05 64.35-3.65 64.6-3.65 69.25-13.05 76.15-25.8 80.25-25.8 66.15 0ZM90.34 0.6L90.34 0.6Q85.69 0.6 83.14-2.15 80.59-4.9 80.59-10.2L80.59-10.2Q80.59-13.4 81.57-16.32 82.54-19.25 84.32-21.5 86.09-23.75 88.57-25.08 91.04-26.4 94.09-26.4L94.09-26.4Q95.74-26.4 97.24-25.98 98.74-25.55 99.89-24.7 101.04-23.85 101.72-22.55 102.39-21.25 102.39-19.5L102.39-19.5Q102.39-15.25 98.02-13.2 93.64-11.15 84.59-11.05L84.59-11.05Q84.49-10.5 84.47-9.93 84.44-9.35 84.44-8.95L84.44-8.95Q84.44-6.2 86.02-4.53 87.59-2.85 90.59-2.85L90.59-2.85Q93.04-2.85 95.02-3.98 96.99-5.1 98.49-6.95L98.49-6.95 100.99-4.7Q98.59-1.75 95.87-0.58 93.14 0.6 90.34 0.6ZM93.69-23.1L93.69-23.1Q92.19-23.1 90.82-22.55 89.44-22 88.37-21.03 87.29-20.05 86.52-18.63 85.74-17.2 85.39-15.5L85.39-15.5 85.09-14.05Q89.24-14.2 91.84-14.58 94.44-14.95 95.92-15.63 97.39-16.3 97.92-17.25 98.44-18.2 98.44-19.55L98.44-19.55Q98.44-20.6 98.04-21.28 97.64-21.95 96.99-22.35 96.34-22.75 95.47-22.93 94.59-23.1 93.69-23.1ZM113.29 0L109.74 0Q107.99 0 107.12-0.88 106.24-1.75 106.24-3.15L106.24-3.15Q106.24-3.6 106.39-4.35L106.39-4.35 112.94-37 116.79-37 110.04-3.4 113.94-3.4 113.29 0ZM128.64 0.6L128.64 0.6Q126.59 0.6 124.89-0.08 123.19-0.75 121.96-2.08 120.74-3.4 120.04-5.38 119.34-7.35 119.34-10L119.34-10Q119.34-13.25 120.31-16.23 121.29-19.2 123.04-21.45 124.79-23.7 127.24-25.05 129.69-26.4 132.64-26.4L132.64-26.4Q134.64-26.4 136.36-25.73 138.09-25.05 139.31-23.73 140.54-22.4 141.24-20.4 141.94-18.4 141.94-15.8L141.94-15.8Q141.94-12.55 140.96-9.58 139.99-6.6 138.24-4.35 136.49-2.1 134.04-0.75 131.59 0.6 128.64 0.6ZM129.14-2.85L129.14-2.85Q131.94-2.85 134.14-4.9 136.34-6.95 137.14-10.9L137.14-10.9 137.89-14.65Q138.14-15.9 138.14-16.9L138.14-16.9Q138.14-19.6 136.61-21.28 135.09-22.95 132.14-22.95L132.14-22.95Q129.34-22.95 127.14-20.9 124.94-18.85 124.14-14.9L124.14-14.9 123.39-11.15Q123.14-9.9 123.14-8.9L123.14-8.9Q123.14-6.2 124.66-4.53 126.19-2.85 129.14-2.85ZM144.19 10L151.39-25.8 155.24-25.8 154.09-20.2 154.24-20.2Q155.84-23.45 157.79-24.93 159.74-26.4 162.59-26.4L162.59-26.4Q166.14-26.4 168.29-23.78 170.44-21.15 170.44-16.55L170.44-16.55Q170.44-13.7 169.66-10.68 168.89-7.65 167.34-5.13 165.79-2.6 163.41-1 161.04 0.6 157.84 0.6L157.84 0.6Q156.69 0.6 155.59 0.3 154.49 0 153.59-0.6 152.69-1.2 152.04-2.1 151.39-3 151.09-4.2L151.09-4.2 150.89-4.2 148.04 10 144.19 10ZM157.49-2.9L157.49-2.9Q160.64-2.9 162.69-4.95 164.74-7 165.49-10.75L165.49-10.75 166.24-14.5Q166.49-15.9 166.49-17.05L166.49-17.05Q166.49-19.6 165.31-21.25 164.14-22.9 161.54-22.9L161.54-22.9Q159.84-22.9 158.56-22.2 157.29-21.5 156.14-20.35L156.14-20.35Q154.89-19.1 154.09-17.6 153.29-16.1 152.89-14.15L152.89-14.15 151.84-8.9Q151.59-7.7 151.79-6.6 151.99-5.5 152.69-4.67 153.39-3.85 154.56-3.38 155.74-2.9 157.49-2.9ZM178.63 0L174.78 0 179.98-25.8 183.83-25.8 182.78-20.7 183.03-20.7Q184.38-23.6 186.21-25 188.03-26.4 190.88-26.4L190.88-26.4Q193.58-26.4 195.08-24.9 196.58-23.4 196.88-20.7L196.88-20.7 197.18-20.7Q198.48-23.6 200.43-25 202.38-26.4 205.23-26.4L205.23-26.4Q208.48-26.4 210.11-24.55 211.73-22.7 211.73-19.3L211.73-19.3Q211.73-17.7 211.38-15.95L211.38-15.95 208.88-3.4 212.53-3.4 211.88 0 208.28 0Q206.78 0 205.88-0.7 204.98-1.4 204.98-2.85L204.98-2.85Q204.98-3.25 205.13-4L205.13-4 207.53-15.95Q207.83-17.45 207.83-18.7L207.83-18.7Q207.83-20.8 206.91-21.85 205.98-22.9 203.88-22.9L203.88-22.9Q201.53-22.9 199.53-20.85L199.53-20.85Q198.28-19.6 197.46-17.8 196.63-16 196.33-14.4L196.33-14.4 193.43 0 189.58 0 192.78-15.9Q193.08-17.4 193.08-18.8L193.08-18.8Q193.08-22.9 189.48-22.9L189.48-22.9Q188.18-22.9 187.03-22.35 185.88-21.8 185.03-20.9L185.03-20.9Q183.63-19.5 182.73-17.7 181.83-15.9 181.53-14.4L181.53-14.4 178.63 0ZM227.58 0.6L227.58 0.6Q222.93 0.6 220.38-2.15 217.83-4.9 217.83-10.2L217.83-10.2Q217.83-13.4 218.81-16.32 219.78-19.25 221.56-21.5 223.33-23.75 225.81-25.08 228.28-26.4 231.33-26.4L231.33-26.4Q232.98-26.4 234.48-25.98 235.98-25.55 237.13-24.7 238.28-23.85 238.96-22.55 239.63-21.25 239.63-19.5L239.63-19.5Q239.63-15.25 235.26-13.2 230.88-11.15 221.83-11.05L221.83-11.05Q221.73-10.5 221.71-9.93 221.68-9.35 221.68-8.95L221.68-8.95Q221.68-6.2 223.26-4.53 224.83-2.85 227.83-2.85L227.83-2.85Q230.28-2.85 232.26-3.98 234.23-5.1 235.73-6.95L235.73-6.95 238.23-4.7Q235.83-1.75 233.11-0.58 230.38 0.6 227.58 0.6ZM230.93-23.1L230.93-23.1Q229.43-23.1 228.06-22.55 226.68-22 225.61-21.03 224.53-20.05 223.76-18.63 222.98-17.2 222.63-15.5L222.63-15.5 222.33-14.05Q226.48-14.2 229.08-14.58 231.68-14.95 233.16-15.63 234.63-16.3 235.16-17.25 235.68-18.2 235.68-19.55L235.68-19.55Q235.68-20.6 235.28-21.28 234.88-21.95 234.23-22.35 233.58-22.75 232.71-22.93 231.83-23.1 230.93-23.1ZM246.58 0L242.73 0 247.93-25.8 251.78-25.8 250.73-20.7 250.98-20.7Q252.33-23.6 254.2-25 256.08-26.4 258.88-26.4L258.88-26.4Q262.23-26.4 263.88-24.5 265.53-22.6 265.53-19.25L265.53-19.25Q265.53-18.55 265.45-17.7 265.38-16.85 265.18-15.9L265.18-15.9 262.68-3.4 266.33-3.4 265.68 0 262.03 0Q260.58 0 259.7-0.7 258.83-1.4 258.83-2.9L258.83-2.9Q258.83-3.15 258.83-3.35 258.83-3.55 258.93-3.95L258.93-3.95 261.33-15.9Q261.48-16.65 261.53-17.38 261.58-18.1 261.58-18.55L261.58-18.55Q261.58-20.75 260.65-21.83 259.73-22.9 257.63-22.9L257.63-22.9Q254.93-22.9 252.88-20.85L252.88-20.85Q251.58-19.55 250.68-17.75 249.78-15.95 249.48-14.4L249.48-14.4 246.58 0ZM280.68 0L275.98 0Q274.23 0 273.35-0.88 272.48-1.75 272.48-3.15L272.48-3.15Q272.48-3.6 272.63-4.35L272.63-4.35 276.28-22.4 272.48-22.4 273.13-25.8 275.07-25.8Q276.48-25.8 276.95-26.35 277.43-26.9 277.68-28.25L277.68-28.25 278.63-32.95 282.18-32.95 280.78-25.8 286.23-25.8 285.57-22.4 280.13-22.4 276.28-3.4 281.32-3.4 280.68 0Z" opacity="1" transform="matrix(1,0,0,1,0,0)" fill="#90afc5" class="slogan-text-1" data-fill-palette-color="secondary" id="text-1"></path>
                                        </svg>
                                      </g>
                                    </svg>
                                  </g>
                                </svg>
                              </g>
                            </svg>
                          </g>
                          <g transform="matrix(1,0,0,1,55.79600000000001,0)">
                            <svg viewBox="0 0 96.40799999999999 51.52471836547851" height="51.52471836547851" width="96.40799999999999">
                              <g>
                                <svg xmlns="http://www.w3.org/2000/svg" xmlns:xlink="http://www.w3.org/1999/xlink" version="1.1" x="0" y="0" viewBox="5 25.899999618530273 90 48.099998474121094" enable-background="new 0 0 100 100" xml:space="preserve" height="51.52471836547851" width="96.40799999999999" class="icon-icon-0" data-fill-palette-color="accent" id="icon-0">
                                  <g fill="#90afc5" data-fill-palette-color="accent">
                                    <path d="M5 25.9v48.1h90V25.9H5zM91 70.1H9V29.9h82V70.1z" fill="#90afc5" data-fill-palette-color="accent"></path>
                                    <path d="M89 31.9H11v36h78V31.9zM87 58.9h-7v7H20v-7h-7v-18h7v-7h60v7h7V58.9z" fill="#90afc5" data-fill-palette-color="accent"></path>
                                    <circle cx="27.3" cy="49.9" r="4.7" fill="#90afc5" data-fill-palette-color="accent"></circle>
                                    <circle cx="72.7" cy="49.9" r="4.7" fill="#90afc5" data-fill-palette-color="accent"></circle>
                                    <path d="M50.2 37.7c-6.8 0-12.2 5.5-12.2 12.2s5.5 12.2 12.2 12.2 12.2-5.5 12.2-12.2S57 37.7 50.2 37.7zM53.7 55c-0.5 0.7-1.3 1.1-2.3 1.4v2.1h-1.9v-2c-0.6-0.1-1.2-0.2-1.8-0.5-0.6-0.3-1.2-0.6-1.7-1l1.3-2c0.5 0.4 1 0.7 1.5 0.9 0.5 0.2 0.9 0.3 1.4 0.3 0.6 0 1-0.1 1.2-0.3 0.3-0.2 0.4-0.6 0.4-1 0-0.3-0.1-0.6-0.4-0.9-0.3-0.2-0.6-0.5-1-0.7-0.4-0.2-0.8-0.4-1.3-0.7-0.5-0.2-0.9-0.5-1.3-0.8-0.4-0.3-0.7-0.7-1-1.1-0.3-0.4-0.4-0.9-0.4-1.5 0-1 0.3-1.8 0.8-2.4s1.3-1.1 2.2-1.3v-2.1h1.9v2c0.6 0.1 1.2 0.3 1.7 0.6 0.5 0.3 0.9 0.6 1.3 1.1l-1.5 1.7c-0.4-0.3-0.7-0.6-1-0.8-0.3-0.2-0.7-0.3-1.1-0.3-0.5 0-0.8 0.1-1.1 0.3-0.3 0.2-0.4 0.5-0.4 1 0 0.3 0.1 0.6 0.4 0.8 0.3 0.2 0.6 0.4 1 0.6 0.4 0.2 0.8 0.4 1.3 0.6 0.5 0.2 0.9 0.5 1.3 0.8 0.4 0.3 0.7 0.7 1 1.1 0.3 0.4 0.4 1 0.4 1.6C54.5 53.5 54.3 54.4 53.7 55z" fill="#90afc5" data-fill-palette-color="accent"></path>
                                  </g>
                                </svg>
                              </g>
                            </svg>
                          </g>
                          <g></g>
                        </svg>
                      </g>
                    </svg>
                  </g>
                </svg>
              </g>
            </svg>
          </g>
          <defs></defs>
        </svg>
        <rect width="320" height="360" fill="none" stroke="none" visibility="hidden"></rect>
      </g>
    </svg>
  </g>
</svg>